G04 EAGLE Gerber RS-274X export*
G75*
%MOMM*%
%FSLAX34Y34*%
%LPD*%
%IN*%
%IPPOS*%
%AMOC8*
5,1,8,0,0,1.08239X$1,22.5*%
G01*
%ADD10C,0.254000*%


D10*
X0Y0D02*
X250000Y0D01*
X250000Y90000D01*
X390000Y90000D01*
X478900Y0D01*
X670000Y0D01*
X670000Y170000D01*
X580000Y170000D01*
X580000Y210000D01*
X660000Y210000D01*
X660701Y209943D01*
X661404Y209948D01*
X662105Y210014D01*
X662796Y210140D01*
X663475Y210327D01*
X664134Y210572D01*
X664769Y210873D01*
X665376Y211229D01*
X665950Y211636D01*
X666486Y212092D01*
X666980Y212592D01*
X667428Y213134D01*
X667828Y213713D01*
X668176Y214324D01*
X668469Y214964D01*
X668705Y215626D01*
X668882Y216307D01*
X669000Y217000D01*
X669000Y307000D01*
X669132Y307966D01*
X669180Y308941D01*
X669143Y309915D01*
X669021Y310883D01*
X668815Y311836D01*
X668526Y312768D01*
X668158Y313671D01*
X667712Y314539D01*
X667192Y315364D01*
X666603Y316141D01*
X665948Y316864D01*
X665232Y317526D01*
X664461Y318124D01*
X663642Y318653D01*
X662779Y319108D01*
X661880Y319486D01*
X660951Y319784D01*
X660000Y320000D01*
X600000Y320000D01*
X600000Y360000D01*
X680000Y360000D01*
X680000Y670000D01*
X460000Y670000D01*
X460000Y570000D01*
X0Y570000D01*
X0Y340000D01*
X100000Y340000D01*
X100000Y260000D01*
X0Y260000D01*
X0Y0D01*
M02*
