G04 EAGLE Gerber RS-274X export*
G75*
%MOMM*%
%FSLAX34Y34*%
%LPD*%
%INSoldermask Top*%
%IPPOS*%
%AMOC8*
5,1,8,0,0,1.08239X$1,22.5*%
G01*
%ADD10C,2.603200*%
%ADD11R,1.403200X1.053200*%
%ADD12R,0.903200X0.803200*%
%ADD13R,1.103200X0.903200*%
%ADD14R,1.203200X1.303200*%
%ADD15R,0.753200X1.403200*%
%ADD16R,2.003200X1.803200*%
%ADD17P,1.951982X8X22.500000*%
%ADD18C,1.803400*%
%ADD19R,1.203200X1.603200*%
%ADD20R,1.443400X0.792300*%
%ADD21R,0.903200X1.103200*%
%ADD22R,0.803200X0.903200*%
%ADD23R,1.753200X0.803200*%
%ADD24R,2.003200X1.403200*%
%ADD25R,0.833200X1.033200*%
%ADD26R,1.033200X0.833200*%
%ADD27R,4.803200X1.203200*%
%ADD28R,3.603200X1.803200*%
%ADD29R,1.403200X1.003200*%
%ADD30R,1.153200X1.103200*%
%ADD31R,1.727200X1.727200*%
%ADD32C,2.082800*%
%ADD33R,1.003200X1.403200*%
%ADD34R,1.403200X0.753200*%
%ADD35R,1.303200X1.203200*%
%ADD36R,1.079500X0.508000*%
%ADD37C,0.499716*%
%ADD38R,1.389600X0.787100*%
%ADD39R,1.412000X0.678400*%
%ADD40R,2.903200X1.003200*%
%ADD41R,1.473200X0.838200*%
%ADD42C,1.727200*%
%ADD43R,1.503200X1.703200*%
%ADD44C,2.387600*%
%ADD45C,1.403200*%
%ADD46R,0.803200X1.753200*%
%ADD47R,1.403200X2.003200*%
%ADD48C,0.959600*%


D10*
X25000Y235000D03*
X25000Y25000D03*
X225000Y25000D03*
X225000Y235000D03*
X370000Y540000D03*
X370000Y360000D03*
X20000Y360000D03*
X20000Y540000D03*
X660000Y380000D03*
X480000Y380000D03*
X480000Y650000D03*
X660000Y650000D03*
D11*
X112500Y192500D03*
X112500Y217500D03*
X49500Y217500D03*
X49500Y192500D03*
X112500Y42500D03*
X112500Y67500D03*
X49500Y67500D03*
X49500Y42500D03*
D12*
X102000Y246000D03*
X102000Y236000D03*
X113000Y236000D03*
X113000Y246000D03*
D13*
X54000Y245500D03*
X54000Y232500D03*
D14*
X111500Y20000D03*
X128500Y20000D03*
D15*
X115500Y143000D03*
X125000Y143000D03*
X134500Y143000D03*
X134500Y169000D03*
X115500Y169000D03*
D12*
X145000Y161000D03*
X145000Y151000D03*
D13*
X156000Y162500D03*
X156000Y149500D03*
D16*
X136000Y42000D03*
X136000Y70000D03*
D17*
X160700Y105000D03*
D18*
X135300Y105000D03*
D16*
X163000Y42000D03*
X163000Y70000D03*
D19*
X191000Y38000D03*
X200500Y16000D03*
X181500Y16000D03*
D12*
X148000Y221000D03*
X148000Y231000D03*
D20*
X159444Y230500D03*
X159444Y211500D03*
X180556Y221000D03*
D21*
X162500Y198000D03*
X175500Y198000D03*
D22*
X174000Y187000D03*
X164000Y187000D03*
D23*
X196600Y90000D03*
X196600Y80000D03*
D24*
X235350Y113000D03*
X235350Y57000D03*
D23*
X196600Y70000D03*
X196600Y100000D03*
X196600Y180000D03*
X196600Y170000D03*
D24*
X235350Y203000D03*
X235350Y147000D03*
D23*
X196600Y160000D03*
X196600Y190000D03*
D25*
X167500Y17000D03*
X144500Y17000D03*
D26*
X149000Y203500D03*
X149000Y180500D03*
D25*
X87500Y239000D03*
X64500Y239000D03*
D27*
X75000Y120000D03*
X75000Y140000D03*
D28*
X23000Y96000D03*
X23000Y164000D03*
D29*
X583040Y152510D03*
X583040Y134510D03*
X593200Y59800D03*
X593200Y41800D03*
X486520Y49640D03*
X486520Y31640D03*
D25*
X528500Y101600D03*
X505500Y101600D03*
X528500Y127000D03*
X505500Y127000D03*
D26*
X478900Y100400D03*
X478900Y77400D03*
X478900Y128200D03*
X478900Y151200D03*
D30*
X552560Y151640D03*
X552560Y120140D03*
D31*
X428100Y101600D03*
X428100Y127000D03*
D32*
X645270Y139700D03*
X642730Y114300D03*
X645270Y88900D03*
X642730Y63500D03*
X645270Y38100D03*
D33*
X508000Y152400D03*
X526000Y152400D03*
X546100Y20320D03*
X564100Y20320D03*
D29*
X567800Y41800D03*
X567800Y59800D03*
D33*
X546100Y95250D03*
X564100Y95250D03*
X603470Y95250D03*
X585470Y95250D03*
D34*
X516699Y60300D03*
X516699Y50800D03*
X516699Y41300D03*
X542701Y41300D03*
X542701Y60300D03*
D35*
X573400Y301500D03*
X556400Y301500D03*
D14*
X608500Y283500D03*
X608500Y266500D03*
D32*
X654200Y269200D03*
X654200Y294600D03*
X640800Y225300D03*
X615400Y225300D03*
X590000Y225300D03*
X564600Y225300D03*
X539200Y225300D03*
X513800Y225300D03*
X488400Y225300D03*
D35*
X515500Y302000D03*
X532500Y302000D03*
D14*
X489400Y294000D03*
X489400Y277000D03*
D35*
X509100Y257400D03*
X492100Y257400D03*
D36*
X518088Y280400D03*
X518088Y273900D03*
X518088Y267400D03*
X540313Y267400D03*
X540313Y280400D03*
D37*
X560082Y283132D02*
X569218Y283132D01*
X560082Y283132D02*
X560082Y286068D01*
X569218Y286068D01*
X569218Y283132D01*
X569218Y273632D02*
X560082Y273632D01*
X560082Y276568D01*
X569218Y276568D01*
X569218Y273632D01*
X569218Y264132D02*
X560082Y264132D01*
X560082Y267068D01*
X569218Y267068D01*
X569218Y264132D01*
X585182Y264132D02*
X594318Y264132D01*
X585182Y264132D02*
X585182Y267068D01*
X594318Y267068D01*
X594318Y264132D01*
X594318Y283132D02*
X585182Y283132D01*
X585182Y286068D01*
X594318Y286068D01*
X594318Y283132D01*
D35*
X242000Y422500D03*
X242000Y405500D03*
X257000Y422500D03*
X257000Y405500D03*
X275500Y389000D03*
X292500Y389000D03*
D38*
X300776Y405108D03*
X300776Y414608D03*
X300776Y424108D03*
X275488Y424108D03*
X275488Y405108D03*
D14*
X320000Y398500D03*
X320000Y415500D03*
D39*
X301093Y477202D03*
X301093Y483702D03*
X301093Y490202D03*
X301093Y496702D03*
X276027Y496702D03*
X276027Y490202D03*
X276027Y483702D03*
X276027Y477202D03*
D14*
X318000Y466500D03*
X318000Y483500D03*
X278500Y513000D03*
X261500Y513000D03*
X309500Y513000D03*
X292500Y513000D03*
D21*
X261500Y531000D03*
X274500Y531000D03*
D40*
X249984Y483728D03*
X249984Y461728D03*
D35*
X274472Y458092D03*
X291472Y458092D03*
D41*
X210000Y449872D03*
X210000Y458000D03*
X210000Y466128D03*
D42*
X352380Y424600D02*
X367620Y424600D01*
X367620Y450000D02*
X352380Y450000D01*
X352380Y475400D02*
X367620Y475400D01*
D20*
X180556Y490500D03*
X180556Y509500D03*
X159444Y500000D03*
X180556Y410500D03*
X180556Y429500D03*
X159444Y420000D03*
D14*
X197500Y524000D03*
X214500Y524000D03*
X131500Y470000D03*
X148500Y470000D03*
D43*
X149500Y450000D03*
X130500Y450000D03*
D14*
X154000Y514500D03*
X154000Y531500D03*
D44*
X40000Y453000D03*
X90000Y478000D03*
X90000Y503000D03*
X90000Y428000D03*
X90000Y403000D03*
D45*
X40000Y503000D03*
X15000Y503000D03*
X15000Y403000D03*
X40000Y403000D03*
X90000Y453000D03*
D39*
X563907Y497798D03*
X563907Y491298D03*
X563907Y484798D03*
X563907Y478298D03*
X588973Y478298D03*
X588973Y484798D03*
X588973Y491298D03*
X588973Y497798D03*
D14*
X547000Y508500D03*
X547000Y491500D03*
X586500Y462000D03*
X603500Y462000D03*
X555500Y462000D03*
X572500Y462000D03*
D21*
X603500Y444000D03*
X590500Y444000D03*
D40*
X615016Y491272D03*
X615016Y513272D03*
D23*
X513400Y590000D03*
X513400Y600000D03*
D24*
X474650Y567000D03*
X474650Y623000D03*
D23*
X513400Y610000D03*
X513400Y580000D03*
X513400Y510000D03*
X513400Y520000D03*
D24*
X474650Y487000D03*
X474650Y543000D03*
D23*
X513400Y530000D03*
X513400Y500000D03*
X513400Y430000D03*
X513400Y440000D03*
D24*
X474650Y407000D03*
X474650Y463000D03*
D23*
X513400Y450000D03*
X513400Y420000D03*
D46*
X570000Y413400D03*
X560000Y413400D03*
D47*
X593000Y374650D03*
X537000Y374650D03*
D46*
X550000Y413400D03*
X580000Y413400D03*
X560000Y616600D03*
X570000Y616600D03*
D47*
X537000Y655350D03*
X593000Y655350D03*
D46*
X580000Y616600D03*
X550000Y616600D03*
D23*
X626600Y585000D03*
X626600Y575000D03*
D24*
X665350Y608000D03*
X665350Y552000D03*
D23*
X626600Y565000D03*
X626600Y595000D03*
D35*
X602000Y581500D03*
X602000Y598500D03*
X588500Y520000D03*
X571500Y520000D03*
D48*
X74000Y108000D03*
X71000Y184000D03*
X130000Y231000D03*
X130000Y184000D03*
X82000Y208000D03*
X63000Y68000D03*
X82000Y152000D03*
X114000Y78000D03*
X120000Y131000D03*
X156000Y140000D03*
X191000Y150000D03*
X174000Y88000D03*
X196000Y60000D03*
X174000Y211000D03*
X112000Y207000D03*
X113000Y55000D03*
X174000Y177000D03*
X149000Y28000D03*
X71000Y199000D03*
X91000Y161000D03*
X91000Y228000D03*
X91000Y193000D03*
X99000Y20000D03*
X99000Y169000D03*
X102000Y10000D03*
X106000Y156000D03*
X136000Y56000D03*
X507000Y277000D03*
X514000Y246000D03*
X552000Y275000D03*
X545000Y301000D03*
X609000Y255000D03*
X320000Y427000D03*
X286000Y415000D03*
X289000Y473000D03*
X332000Y493000D03*
X312000Y502000D03*
X167000Y529000D03*
X172000Y439000D03*
X320000Y496000D03*
X320000Y454000D03*
X301000Y435000D03*
X307000Y393000D03*
X276000Y469000D03*
X262000Y498000D03*
X226000Y524000D03*
X181000Y419000D03*
X181000Y500000D03*
X181000Y524000D03*
X576000Y502000D03*
X536000Y484000D03*
X553000Y473000D03*
X590000Y615000D03*
X495000Y610000D03*
X495000Y530000D03*
X495000Y450000D03*
X550000Y395000D03*
X550000Y428000D03*
X536000Y450000D03*
X536000Y530000D03*
X536000Y608000D03*
X643000Y575000D03*
X545000Y479000D03*
X545000Y521000D03*
X528000Y420000D03*
X528000Y616000D03*
X528000Y580000D03*
X528000Y500000D03*
X591000Y414000D03*
X589000Y506000D03*
X603000Y474000D03*
X627000Y534000D03*
X627000Y606000D03*
X615000Y477000D03*
X647000Y585000D03*
M02*
