G04 EAGLE Gerber RS-274X export*
G75*
%MOMM*%
%FSLAX34Y34*%
%LPD*%
%INSoldermask Bottom*%
%IPPOS*%
%AMOC8*
5,1,8,0,0,1.08239X$1,22.5*%
G01*
%ADD10C,2.603200*%
%ADD11P,1.951982X8X22.500000*%
%ADD12C,1.803400*%
%ADD13R,1.727200X1.727200*%
%ADD14C,2.082800*%
%ADD15C,1.727200*%
%ADD16C,2.387600*%
%ADD17C,1.403200*%
%ADD18C,0.959600*%


D10*
X25000Y235000D03*
X25000Y25000D03*
X225000Y25000D03*
X225000Y235000D03*
X370000Y540000D03*
X370000Y360000D03*
X20000Y360000D03*
X20000Y540000D03*
X660000Y380000D03*
X480000Y380000D03*
X480000Y650000D03*
X660000Y650000D03*
D11*
X160700Y105000D03*
D12*
X135300Y105000D03*
D13*
X428100Y101600D03*
X428100Y127000D03*
D14*
X645270Y139700D03*
X642730Y114300D03*
X645270Y88900D03*
X642730Y63500D03*
X645270Y38100D03*
X654200Y269200D03*
X654200Y294600D03*
X640800Y225300D03*
X615400Y225300D03*
X590000Y225300D03*
X564600Y225300D03*
X539200Y225300D03*
X513800Y225300D03*
X488400Y225300D03*
D15*
X367620Y424600D02*
X352380Y424600D01*
X352380Y450000D02*
X367620Y450000D01*
X367620Y475400D02*
X352380Y475400D01*
D16*
X40000Y453000D03*
X90000Y478000D03*
X90000Y503000D03*
X90000Y428000D03*
X90000Y403000D03*
D17*
X40000Y503000D03*
X15000Y503000D03*
X15000Y403000D03*
X40000Y403000D03*
X90000Y453000D03*
D18*
X74000Y108000D03*
X71000Y184000D03*
X130000Y231000D03*
X130000Y184000D03*
X82000Y208000D03*
X63000Y68000D03*
X82000Y152000D03*
X114000Y78000D03*
X120000Y131000D03*
X156000Y140000D03*
X191000Y150000D03*
X174000Y88000D03*
X196000Y60000D03*
X174000Y211000D03*
X112000Y207000D03*
X113000Y55000D03*
X174000Y177000D03*
X149000Y28000D03*
X71000Y199000D03*
X91000Y161000D03*
X91000Y228000D03*
X91000Y193000D03*
X99000Y20000D03*
X99000Y169000D03*
X102000Y10000D03*
X106000Y156000D03*
X136000Y56000D03*
X507000Y277000D03*
X514000Y246000D03*
X552000Y275000D03*
X545000Y301000D03*
X609000Y255000D03*
X320000Y427000D03*
X286000Y415000D03*
X289000Y473000D03*
X332000Y493000D03*
X312000Y502000D03*
X167000Y529000D03*
X172000Y439000D03*
X320000Y496000D03*
X320000Y454000D03*
X301000Y435000D03*
X307000Y393000D03*
X276000Y469000D03*
X262000Y498000D03*
X226000Y524000D03*
X181000Y419000D03*
X181000Y500000D03*
X181000Y524000D03*
X576000Y502000D03*
X536000Y484000D03*
X553000Y473000D03*
X590000Y615000D03*
X495000Y610000D03*
X495000Y530000D03*
X495000Y450000D03*
X550000Y395000D03*
X550000Y428000D03*
X536000Y450000D03*
X536000Y530000D03*
X536000Y608000D03*
X643000Y575000D03*
X545000Y479000D03*
X545000Y521000D03*
X528000Y420000D03*
X528000Y616000D03*
X528000Y580000D03*
X528000Y500000D03*
X591000Y414000D03*
X589000Y506000D03*
X603000Y474000D03*
X627000Y534000D03*
X627000Y606000D03*
X615000Y477000D03*
X647000Y585000D03*
M02*
