M48
;GenerationSoftware,Autodesk,EAGLE,9.5.1*%
;CreationDate,2020-10-26T23:04:26Z*%
FMAT,2
ICI,OFF
METRIC,TZ,000.000
T7C0.350
T6C0.813
T5C1.016
T4C1.200
T3C1.300
T2C2.400
%
G90
M71
T2
X2500Y23500
X2500Y2500
X22500Y2500
X22500Y23500
X37000Y54000
X37000Y36000
X2000Y36000
X2000Y54000
X66000Y38000
X48000Y38000
X48000Y65000
X66000Y65000
T3
X9000Y40300
X9000Y42800
X9000Y50300
X9000Y47800
X4000Y45300
T4
X4000Y50300
X1500Y50300
X1500Y40300
X4000Y40300
X9000Y45300
T5
X61540Y22530
X36000Y47540
X36000Y45000
X36000Y42460
X48840Y22530
X51380Y22530
X56460Y22530
X59000Y22530
X64080Y22530
X65420Y29460
X65420Y26920
X64527Y3810
X64273Y6350
X64527Y8890
X64527Y13970
X64273Y11430
X42810Y12700
X42810Y10160
X53920Y22530
T6
X13530Y10500
X16070Y10500
T7
X53600Y60800
X64300Y57500
X54500Y47900
X54500Y52100
X52800Y42000
X52800Y61600
X52800Y58000
X52800Y50000
X59100Y41400
X58900Y50600
X60300Y47400
X62700Y53400
X62700Y60600
X61500Y47700
X64700Y58500
X53600Y53000
X11300Y5500
X55200Y27500
X51400Y24600
X50700Y27700
X13600Y5600
X10600Y15600
X10200Y1000
X9900Y16900
X9900Y2000
X9100Y19300
X9100Y22800
X9100Y16100
X7100Y19900
X14900Y2800
X17400Y17700
X54500Y30100
X11200Y20700
X17400Y21100
X19600Y6000
X17400Y8800
X19100Y15000
X15600Y14000
X12000Y13100
X11400Y7800
X8200Y15200
X6300Y6800
X8200Y20800
X13000Y18400
X13000Y23100
X7100Y18400
X26200Y49800
X53600Y45000
X55000Y42800
X55000Y39500
X49500Y45000
X49500Y53000
X49500Y61000
X59000Y61500
X55300Y47300
X53600Y48400
X57600Y50200
X18100Y52400
X18100Y50000
X18100Y41900
X22600Y52400
X7400Y10800
X27600Y46900
X30700Y39300
X30100Y43500
X32000Y45400
X32000Y49600
X17200Y43900
X16700Y52900
X31200Y50200
X33200Y49300
X28900Y47300
X28600Y41500
X32000Y42700
X60900Y25500
M30